<mxfile host="app.diagrams.net" modified="2024-07-18T08:55:54.623Z" agent="Mozilla/5.0 (Macintosh; Intel Mac OS X 10_15_7) AppleWebKit/537.36 (KHTML, like Gecko) Chrome/126.0.0.0 Safari/537.36" version="24.7.1" etag="64qCkYHYExf0W6xQbKcf" type="github">
  <diagram name="第 1 页" id="6s8zw5MiDVVxvaLkiCuZ">
    <mxGraphModel>
      <root>
        <mxCell id="0" />
        <mxCell id="1" parent="0" />
      </root>
    </mxGraphModel>
  </diagram>
</mxfile>
